<svg id="Layer_1" data-name="Layer 1" xmlns="http://www.w3.org/2000/svg" viewBox="0 0 351.35 102.17"><defs><style>.cls-1{fill:#fff;}.cls-2{fill:#bad982;}.cls-3{fill:#bbbdc0;}</style></defs><title>CareLynx_Logo_Rev_Colour</title><path class="cls-1" d="M222.78,77.61h4l-2-5.55Zm4.5,1.28h-5L221.19,82h-1.61l4.53-11.86h1.37L230,82h-1.6Z"/><path class="cls-1" d="M233.17,71.41v9.3h1.65a3.56,3.56,0,0,0,2.81-1.12,4.66,4.66,0,0,0,1-3.21v-.69a4.71,4.71,0,0,0-.95-3.14A3.36,3.36,0,0,0,235,71.41ZM231.61,82V70.13H235a5.42,5.42,0,0,1,2.73.68,4.62,4.62,0,0,1,1.84,2,6.42,6.42,0,0,1,.66,2.9v.76a6.37,6.37,0,0,1-.65,2.94,4.56,4.56,0,0,1-1.85,1.94,5.72,5.72,0,0,1-2.8.69Z"/><polygon class="cls-1" points="246.3 79.91 249.69 70.13 251.4 70.13 247 81.99 245.61 81.99 241.22 70.13 242.92 70.13 246.3 79.91"/><path class="cls-1" d="M254.43,77.61h4l-2-5.55Zm4.49,1.28h-5L252.84,82h-1.61l4.52-11.86h1.37L261.66,82h-1.6Z"/><polygon class="cls-1" points="272.37 81.99 270.8 81.99 264.83 72.85 264.83 81.99 263.26 81.99 263.26 70.13 264.83 70.13 270.82 79.31 270.82 70.13 272.37 70.13 272.37 81.99"/><path class="cls-1" d="M283.87,78.23a4.36,4.36,0,0,1-1.38,2.9,4.57,4.57,0,0,1-3.11,1,4.19,4.19,0,0,1-3.37-1.5,6.05,6.05,0,0,1-1.27-4V75.47a6.76,6.76,0,0,1,.59-2.9A4.48,4.48,0,0,1,277,70.64a4.64,4.64,0,0,1,2.51-.67,4.3,4.3,0,0,1,3,1,4.41,4.41,0,0,1,1.32,2.92H282.3a3.43,3.43,0,0,0-.88-2.06,2.69,2.69,0,0,0-1.9-.63,2.8,2.8,0,0,0-2.35,1.1,5.1,5.1,0,0,0-.85,3.16v1.15a5.2,5.2,0,0,0,.8,3.07,2.61,2.61,0,0,0,2.26,1.14,3,3,0,0,0,2-.59,3.28,3.28,0,0,0,.92-2Z"/><polygon class="cls-1" points="292.71 76.51 287.57 76.51 287.57 80.71 293.54 80.71 293.54 81.99 286.01 81.99 286.01 70.13 293.46 70.13 293.46 71.41 287.57 71.41 287.57 75.23 292.71 75.23 292.71 76.51"/><path class="cls-1" d="M297.05,71.41v9.3h1.65a3.56,3.56,0,0,0,2.81-1.12,4.61,4.61,0,0,0,1-3.21v-.69a4.71,4.71,0,0,0-.95-3.14,3.36,3.36,0,0,0-2.69-1.14ZM295.49,82V70.13h3.35a5.49,5.49,0,0,1,2.74.68,4.66,4.66,0,0,1,1.83,2,6.42,6.42,0,0,1,.66,2.9v.76a6.37,6.37,0,0,1-.65,2.94,4.56,4.56,0,0,1-1.85,1.94,5.72,5.72,0,0,1-2.8.69Z"/><path class="cls-1" d="M196,98.25a4.37,4.37,0,0,1-1.39,2.9,4.57,4.57,0,0,1-3.11,1,4.2,4.2,0,0,1-3.37-1.5,6.11,6.11,0,0,1-1.27-4V95.49a6.62,6.62,0,0,1,.6-2.9,4.39,4.39,0,0,1,1.67-1.93,4.64,4.64,0,0,1,2.51-.67,4.3,4.3,0,0,1,3,1.05A4.44,4.44,0,0,1,196,94h-1.58a3.4,3.4,0,0,0-.88-2.06,2.69,2.69,0,0,0-1.9-.63,2.79,2.79,0,0,0-2.35,1.1,5.08,5.08,0,0,0-.85,3.16v1.15a5.27,5.27,0,0,0,.8,3.07,2.61,2.61,0,0,0,2.26,1.14,3,3,0,0,0,2-.59,3.28,3.28,0,0,0,.92-2Z"/><path class="cls-1" d="M200.13,97.63h4l-2-5.55Zm4.5,1.28h-5l-1.11,3.1h-1.62l4.53-11.86h1.37L207.37,102h-1.61Z"/><path class="cls-1" d="M210.53,95.93h2.4a2.71,2.71,0,0,0,1.85-.6,2,2,0,0,0,.69-1.62,2.19,2.19,0,0,0-.65-1.69,2.77,2.77,0,0,0-1.9-.59h-2.39Zm2.78,1.28h-2.78V102H209V90.15h3.92a4.6,4.6,0,0,1,3.08.91A3.3,3.3,0,0,1,217,93.72a3.25,3.25,0,0,1-.59,1.93,3.58,3.58,0,0,1-1.67,1.23l2.78,5v.1h-1.67Z"/><polygon class="cls-1" points="225.94 96.53 220.8 96.53 220.8 100.73 226.77 100.73 226.77 102.01 219.24 102.01 219.24 90.15 226.69 90.15 226.69 91.43 220.8 91.43 220.8 95.25 225.94 95.25 225.94 96.53"/><path class="cls-1" d="M236.34,96.72a7.32,7.32,0,0,1-2.93-1.42,2.7,2.7,0,0,1-.91-2.08,2.87,2.87,0,0,1,1.12-2.32,4.43,4.43,0,0,1,2.91-.91,4.82,4.82,0,0,1,2.18.47,3.55,3.55,0,0,1,1.48,1.3,3.36,3.36,0,0,1,.53,1.82h-1.58a2.16,2.16,0,0,0-.68-1.7,2.79,2.79,0,0,0-1.93-.61,2.88,2.88,0,0,0-1.81.51,1.69,1.69,0,0,0-.64,1.41,1.53,1.53,0,0,0,.61,1.23,6.17,6.17,0,0,0,2.1.92,9.28,9.28,0,0,1,2.31.92,3.49,3.49,0,0,1,1.24,1.16,3,3,0,0,1,.4,1.58,2.77,2.77,0,0,1-1.12,2.31,4.87,4.87,0,0,1-3,.86,5.48,5.48,0,0,1-2.28-.47,3.79,3.79,0,0,1-1.63-1.28,3.08,3.08,0,0,1-.58-1.85h1.58a2,2,0,0,0,.79,1.7,3.32,3.32,0,0,0,2.12.62,3.05,3.05,0,0,0,1.9-.5,1.65,1.65,0,0,0,.66-1.38,1.61,1.61,0,0,0-.61-1.35,7.31,7.31,0,0,0-2.22-.94"/><polygon class="cls-1" points="246.36 96.1 249.46 90.15 251.23 90.15 247.14 97.59 247.14 102.01 245.58 102.01 245.58 97.59 241.49 90.15 243.28 90.15 246.36 96.1"/><path class="cls-1" d="M256.13,96.72a7.32,7.32,0,0,1-2.93-1.42,2.71,2.71,0,0,1-.92-2.08,2.9,2.9,0,0,1,1.12-2.32,4.47,4.47,0,0,1,2.92-.91,4.74,4.74,0,0,1,2.17.47,3.58,3.58,0,0,1,1.49,1.3,3.35,3.35,0,0,1,.52,1.82h-1.57a2.19,2.19,0,0,0-.68-1.7,2.79,2.79,0,0,0-1.93-.61,2.87,2.87,0,0,0-1.81.51,1.7,1.7,0,0,0-.65,1.41,1.54,1.54,0,0,0,.62,1.23,6.19,6.19,0,0,0,2.09.92,9.21,9.21,0,0,1,2.32.92,3.46,3.46,0,0,1,1.23,1.16,3,3,0,0,1,.41,1.58,2.78,2.78,0,0,1-1.13,2.31,4.84,4.84,0,0,1-3,.86,5.41,5.41,0,0,1-2.28-.47,3.88,3.88,0,0,1-1.64-1.28,3.14,3.14,0,0,1-.57-1.85h1.57a2.06,2.06,0,0,0,.79,1.7,3.35,3.35,0,0,0,2.13.62,3.07,3.07,0,0,0,1.9-.5A1.64,1.64,0,0,0,259,99a1.61,1.61,0,0,0-.61-1.35,7.11,7.11,0,0,0-2.21-.94"/><polygon class="cls-1" points="270.73 91.43 266.92 91.43 266.92 102.01 265.36 102.01 265.36 91.43 261.55 91.43 261.55 90.15 270.73 90.15 270.73 91.43"/><polygon class="cls-1" points="279.19 96.53 274.05 96.53 274.05 100.73 280.02 100.73 280.02 102.01 272.49 102.01 272.49 90.15 279.94 90.15 279.94 91.43 274.05 91.43 274.05 95.25 279.19 95.25 279.19 96.53"/><polygon class="cls-1" points="283.99 90.15 287.87 99.83 291.74 90.15 293.77 90.15 293.77 102.01 292.21 102.01 292.21 97.39 292.36 92.41 288.46 102.01 287.26 102.01 283.38 92.43 283.53 97.39 283.53 102.01 281.97 102.01 281.97 90.15 283.99 90.15"/><path class="cls-1" d="M300,96.72a7.32,7.32,0,0,1-2.93-1.42,2.71,2.71,0,0,1-.92-2.08,2.9,2.9,0,0,1,1.12-2.32,4.47,4.47,0,0,1,2.92-.91,4.74,4.74,0,0,1,2.17.47,3.58,3.58,0,0,1,1.49,1.3,3.35,3.35,0,0,1,.52,1.82h-1.57a2.19,2.19,0,0,0-.68-1.7,2.79,2.79,0,0,0-1.93-.61,2.85,2.85,0,0,0-1.81.51,1.7,1.7,0,0,0-.65,1.41,1.54,1.54,0,0,0,.62,1.23,6.19,6.19,0,0,0,2.09.92,9,9,0,0,1,2.31.92A3.49,3.49,0,0,1,304,97.42a3,3,0,0,1,.41,1.58,2.78,2.78,0,0,1-1.13,2.31,4.84,4.84,0,0,1-3,.86,5.49,5.49,0,0,1-2.29-.47,3.91,3.91,0,0,1-1.63-1.28,3.14,3.14,0,0,1-.57-1.85h1.57a2,2,0,0,0,.79,1.7,3.33,3.33,0,0,0,2.13.62,3,3,0,0,0,1.89-.5,1.65,1.65,0,0,0,.66-1.38,1.61,1.61,0,0,0-.61-1.35,7.11,7.11,0,0,0-2.21-.94"/><path class="cls-2" d="M307.23,27.86a2.11,2.11,0,0,1-1.53.69,2.17,2.17,0,0,1-1.56-.62l-8.09-8.1a4.47,4.47,0,0,1,0-6.33l.36-.37a4.48,4.48,0,0,1,6.34,0l3,3S325-3.58,336.78.58a.4.4,0,0,1,.27.4.43.43,0,0,1-.31.39c-2.74.72-5.53,1.43-10.55,6.45-6.67,6.68-15.48,16.23-19,20"/><path class="cls-3" d="M285.09,29.69l-.22-.22L302.59,47.2a4.49,4.49,0,0,0,6.34,0l27.49-27.49a5,5,0,0,0,0-7.07,4.48,4.48,0,0,0-6.34,0L307.85,34.88a3,3,0,0,1-4.18,0l-2.36-2.36-9.74-9.75h0A10,10,0,0,1,298.65,5.7c2.76,0,.72-1.4-3.35-1.4a14.75,14.75,0,0,0-10.21,25.39"/><path class="cls-1" d="M351.35,19.48A14.72,14.72,0,0,0,336.61,4.73c-4.75,0-6.74,1.9-1.57,1.27a5.27,5.27,0,0,1,4.52,1.59c5.24,5.69,4.37,12,.77,15.61h0L330.59,33,312.68,50.86a4.56,4.56,0,0,0,0,6.43l.68.68a4.54,4.54,0,0,0,6-.36L347,29.91l-.22.22a14.71,14.71,0,0,0,4.54-10.65"/><path class="cls-2" d="M24,11.65c5.63,0,18.13,2,18.13,9.3v6.28H34.3v-3.6c0-3.47-6.15-4.65-9.95-4.65-9,0-15.51,6.29-15.51,16.11,0,10.47,6.81,17.28,16,17.28,2.82,0,10.08-.91,10.08-4.58v-3.6h7.79v6.35c0,6.94-12,9.16-18.39,9.16C10.21,59.7,0,49,0,35.48,0,21.74,10.47,11.65,24,11.65"/><path class="cls-2" d="M66.46,44.45c0,4.19-3.21,9-7.72,9a4.51,4.51,0,0,1-4.85-4.59c0-5,7.92-5.56,11.2-5.56h1.37ZM102.1,25.07c-5.1,0-9.1,3.8-10.6,8.58h-.13a15.35,15.35,0,0,0,.13-2.1v-2c0-2.81-1.51-4.06-4.45-4.06H78.34v6.22h3.73a1.31,1.31,0,0,1,1.44,1.44V52.7H76.15a1.28,1.28,0,0,1-1.44-1.44V37.9c0-8.51-4.78-13.15-13.75-13.15a22.69,22.69,0,0,0-13.22,4.12l3.07,5.76s4.46-3.21,9.43-3.21c3.47,0,6.16,1.51,6.16,5.76V38.3H64.3c-5.37,0-18.79,1-18.79,11.26,0,6.81,5.37,10.14,11.07,10.14a11.63,11.63,0,0,0,10.54-6.41h.13a6.33,6.33,0,0,0-.2,1.7v.39c0,1.9,1.18,3.54,4.26,3.54H96.6V52.7H91.83V45.43c0-6.28,3-12.17,9.75-12.17a14.86,14.86,0,0,1,2,.13V25.2a9.6,9.6,0,0,0-1.51-.13"/><path class="cls-2" d="M126.85,38.49c-.13-4.58-2.95-7.33-6.48-7.33-4.26,0-7.27,2.95-8.05,7.33Zm-6.28-13.74c9.62,0,14.86,7,14.86,15.84,0,1-.2,2.81-.2,2.81H112.12c.52,6.16,5,9.3,10,9.3a16.91,16.91,0,0,0,9.69-3.53l3.2,5.89a21.24,21.24,0,0,1-13.48,4.64c-11.07,0-17.94-8-17.94-17.47,0-10.28,6.94-17.48,17-17.48"/><polygon class="cls-1" points="138.21 52.5 143.78 52.5 143.78 19.31 138.21 19.31 138.21 12.44 157.98 12.44 157.98 19.31 152.35 19.31 152.35 52.05 166.1 52.05 166.1 44.84 173.43 44.84 173.43 58.92 138.21 58.92 138.21 52.5"/><path class="cls-1" d="M302.84,52.7H279l-7.6-11,6-8.63a22.66,22.66,0,0,1-3.89-7.54h-.11L268.09,34a23.61,23.61,0,0,0-1.31,2.35h-.13s-.59-1.24-1.24-2.35l-5.17-8.45H250v6.22h5.1l6.88,10.15-7.33,10.8H245V37.45c0-8.84-4.06-12.7-11.19-12.7a13.39,13.39,0,0,0-12.31,7.46h-.13a9.29,9.29,0,0,0,.13-1.44V29.26c0-2.35-1.37-3.73-4.32-3.73H192.61v6.22h3.86l-6,16.89a17.14,17.14,0,0,0-.92,3.47h-.19a14.9,14.9,0,0,0-.72-3.47l-6.09-16.89h3.93V25.53H170v6.22h4L185.47,59.9l-.91,2.1a6.21,6.21,0,0,1-5.89,3.86,8.61,8.61,0,0,1-5-1.57l-2.69,6.09a15.27,15.27,0,0,0,8.12,2.29c5.69,0,10.67-2.82,13.22-9.43l12.31-31.49h7.53a1.31,1.31,0,0,1,1.44,1.44V52.7h-4.85v6.22h17.94V52.7h-4.78V43.93c0-5.83,3.54-11.59,9.56-11.59,4.19,0,5.3,2.75,5.3,6.81V58.92h22.72l5.76-9.3a20.56,20.56,0,0,0,1.24-2.42h.14a16.55,16.55,0,0,0,1.31,2.36l5.89,9.36h30.65a9.59,9.59,0,0,1-1.6-6.22"/></svg>